<?xml version="1.0" standalone="no"?><!DOCTYPE svg PUBLIC "-//W3C//DTD SVG 1.1//EN" "http://www.w3.org/Graphics/SVG/1.1/DTD/svg11.dtd"><svg t="1728882411368" class="icon" viewBox="0 0 1024 1024" version="1.1" xmlns="http://www.w3.org/2000/svg" p-id="3288" xmlns:xlink="http://www.w3.org/1999/xlink" width="200" height="200"><path d="M864.711111 443.733333L620.088889 682.666667l79.644444 79.644444-119.466666 119.466667-443.733334-438.044445 119.466667-119.466666L341.333333 403.911111l238.933334-238.933333-39.822223-45.511111L659.911111 0 1024 364.088889l-119.466667 119.466667-39.822222-39.822223z m39.822222-39.822222l39.822223-39.822222-278.755556-278.755556-39.822222 39.822223 39.822222 39.822222L341.333333 483.555556 261.688889 403.911111l-39.822222 39.822222 364.088889 364.088889 39.822222-39.822222L540.444444 682.666667l324.266667-324.266667 39.822222 45.511111z" fill="#2c2c2c" p-id="3289"></path><path d="M99.384889 967.111111l-40.220445-40.220444 281.6-281.6 40.220445 40.220444z" fill="#2c2c2c" p-id="3290"></path><path d="M335.644444 728.177778l-39.822222-39.822222h39.822222zM96.711111 927.288889v-39.822222l39.822222 39.822222z" fill="#2c2c2c" p-id="3291"></path></svg>